<mxfile host="65bd71144e" modified="2020-11-17T04:49:23.550Z" agent="5.0 (Windows NT 10.0; Win64; x64) AppleWebKit/537.36 (KHTML, like Gecko) Code/1.51.1 Chrome/83.0.4103.122 Electron/9.3.3 Safari/537.36" etag="ep8j4pR997Vj_8U2fees" version="13.6.5">
    <diagram id="qIHrZQoAuw4ehHjwAAsF" name="Page-1">
        <mxGraphModel dx="890" dy="478" grid="1" gridSize="10" guides="1" tooltips="1" connect="1" arrows="1" fold="1" page="1" pageScale="1" pageWidth="850" pageHeight="1100" math="0" shadow="0">
            <root>
                <mxCell id="0"/>
                <mxCell id="1" parent="0"/>
                <mxCell id="VsqtXTOOIpRrKLygxwUS-1" value="Engines" style="swimlane;fontStyle=1;align=center;verticalAlign=top;childLayout=stackLayout;horizontal=1;startSize=26;horizontalStack=0;resizeParent=1;resizeParentMax=0;resizeLast=0;collapsible=1;marginBottom=0;" parent="1" vertex="1">
                    <mxGeometry x="340" y="20" width="220" height="144" as="geometry"/>
                </mxCell>
                <mxCell id="VsqtXTOOIpRrKLygxwUS-2" value="- maximumPowerRating : double&#10;- maximumTorque : double&#10;- maximumRPM : double&#10;- weight - double&#10;- modelNumber - String&#10;" style="text;strokeColor=none;fillColor=none;align=left;verticalAlign=top;spacingLeft=4;spacingRight=4;overflow=hidden;rotatable=0;points=[[0,0.5],[1,0.5]];portConstraint=eastwest;" parent="VsqtXTOOIpRrKLygxwUS-1" vertex="1">
                    <mxGeometry y="26" width="220" height="84" as="geometry"/>
                </mxCell>
                <mxCell id="VsqtXTOOIpRrKLygxwUS-3" value="" style="line;strokeWidth=1;fillColor=none;align=left;verticalAlign=middle;spacingTop=-1;spacingLeft=3;spacingRight=3;rotatable=0;labelPosition=right;points=[];portConstraint=eastwest;" parent="VsqtXTOOIpRrKLygxwUS-1" vertex="1">
                    <mxGeometry y="110" width="220" height="8" as="geometry"/>
                </mxCell>
                <mxCell id="VsqtXTOOIpRrKLygxwUS-4" value="+ getters/setters" style="text;strokeColor=none;fillColor=none;align=left;verticalAlign=top;spacingLeft=4;spacingRight=4;overflow=hidden;rotatable=0;points=[[0,0.5],[1,0.5]];portConstraint=eastwest;" parent="VsqtXTOOIpRrKLygxwUS-1" vertex="1">
                    <mxGeometry y="118" width="220" height="26" as="geometry"/>
                </mxCell>
                <mxCell id="VsqtXTOOIpRrKLygxwUS-5" value="EngineImpl" style="swimlane;fontStyle=1;align=center;verticalAlign=top;childLayout=stackLayout;horizontal=1;startSize=26;horizontalStack=0;resizeParent=1;resizeParentMax=0;resizeLast=0;collapsible=1;marginBottom=0;" parent="1" vertex="1">
                    <mxGeometry x="40" y="90" width="190" height="290" as="geometry"/>
                </mxCell>
                <mxCell id="VsqtXTOOIpRrKLygxwUS-6" value="- numberOfCylenders : int&#10;- displacement : double&#10;- compressionRation : String&#10;- currentType : String&#10;- voltage - double" style="text;strokeColor=none;fillColor=none;align=left;verticalAlign=top;spacingLeft=4;spacingRight=4;overflow=hidden;rotatable=0;points=[[0,0.5],[1,0.5]];portConstraint=eastwest;" parent="VsqtXTOOIpRrKLygxwUS-5" vertex="1">
                    <mxGeometry y="26" width="190" height="94" as="geometry"/>
                </mxCell>
                <mxCell id="VsqtXTOOIpRrKLygxwUS-7" value="" style="line;strokeWidth=1;fillColor=none;align=left;verticalAlign=middle;spacingTop=-1;spacingLeft=3;spacingRight=3;rotatable=0;labelPosition=right;points=[];portConstraint=eastwest;" parent="VsqtXTOOIpRrKLygxwUS-5" vertex="1">
                    <mxGeometry y="120" width="190" height="8" as="geometry"/>
                </mxCell>
                <mxCell id="VsqtXTOOIpRrKLygxwUS-8" value="+ getters/setters&#10;+ petrolEngine() : void&#10;+ desielEngine() : void&#10;+ cngEngine() : void&#10;+ electricEngine() : void&#10;+ displayEngine() : void&#10;   - engineType : String&#10;   - enginePowerSource : String&#10;   - modelNumber : String" style="text;strokeColor=none;fillColor=none;align=left;verticalAlign=top;spacingLeft=4;spacingRight=4;overflow=hidden;rotatable=0;points=[[0,0.5],[1,0.5]];portConstraint=eastwest;" parent="VsqtXTOOIpRrKLygxwUS-5" vertex="1">
                    <mxGeometry y="128" width="190" height="162" as="geometry"/>
                </mxCell>
                <mxCell id="VsqtXTOOIpRrKLygxwUS-13" value="" style="endArrow=none;html=1;edgeStyle=orthogonalEdgeStyle;" parent="1" edge="1">
                    <mxGeometry relative="1" as="geometry">
                        <mxPoint x="310" y="88" as="sourcePoint"/>
                        <mxPoint x="250" y="153" as="targetPoint"/>
                        <Array as="points">
                            <mxPoint x="290" y="88"/>
                            <mxPoint x="290" y="153"/>
                        </Array>
                    </mxGeometry>
                </mxCell>
                <mxCell id="VsqtXTOOIpRrKLygxwUS-14" value="parent" style="edgeLabel;resizable=0;html=1;align=left;verticalAlign=bottom;" parent="VsqtXTOOIpRrKLygxwUS-13" connectable="0" vertex="1">
                    <mxGeometry x="-1" relative="1" as="geometry"/>
                </mxCell>
                <mxCell id="VsqtXTOOIpRrKLygxwUS-15" value="child" style="edgeLabel;resizable=0;html=1;align=right;verticalAlign=bottom;" parent="VsqtXTOOIpRrKLygxwUS-13" connectable="0" vertex="1">
                    <mxGeometry x="1" relative="1" as="geometry"/>
                </mxCell>
            </root>
        </mxGraphModel>
    </diagram>
</mxfile>